<?xml version="1.0" encoding="UTF-8" standalone="no"?>
<svg
   version="1.1"
   width="226px"
   height="100px"
   viewBox="0 0 226 100"
   id="svg70"
   xmlns="http://www.w3.org/2000/svg"
   xmlns:svg="http://www.w3.org/2000/svg">
  <defs
     id="defs74" />
  <rect
     x="18"
     y="0"
     width="2"
     height="90"
     fill="#000"
     id="rect2" />
  <rect
     x="22"
     y="0"
     width="2"
     height="90"
     fill="#000"
     id="rect4" />
  <rect
     x="28"
     y="0"
     width="4"
     height="90"
     fill="#000"
     id="rect6" />
  <rect
     x="36"
     y="0"
     width="2"
     height="90"
     fill="#000"
     id="rect8" />
  <rect
     x="42"
     y="0"
     width="2"
     height="75"
     fill="#000"
     id="rect10" />
  <rect
     x="48"
     y="0"
     width="4"
     height="75"
     fill="#000"
     id="rect12" />
  <rect
     x="54"
     y="0"
     width="8"
     height="75"
     fill="#000"
     id="rect14" />
  <rect
     x="64"
     y="0"
     width="2"
     height="75"
     fill="#000"
     id="rect16" />
  <rect
     x="68"
     y="0"
     width="2"
     height="75"
     fill="#000"
     id="rect18" />
  <rect
     x="76"
     y="0"
     width="4"
     height="75"
     fill="#000"
     id="rect20" />
  <rect
     x="82"
     y="0"
     width="4"
     height="75"
     fill="#000"
     id="rect22" />
  <rect
     x="92"
     y="0"
     width="2"
     height="75"
     fill="#000"
     id="rect24" />
  <rect
     x="96"
     y="0"
     width="2"
     height="75"
     fill="#000"
     id="rect26" />
  <rect
     x="100"
     y="0"
     width="8"
     height="75"
     fill="#000"
     id="rect28" />
  <rect
     x="110"
     y="0"
     width="2"
     height="90"
     fill="#000"
     id="rect30" />
  <rect
     x="114"
     y="0"
     width="2"
     height="90"
     fill="#000"
     id="rect32" />
  <rect
     x="118"
     y="0"
     width="2"
     height="75"
     fill="#000"
     id="rect34" />
  <rect
     x="126"
     y="0"
     width="2"
     height="75"
     fill="#000"
     id="rect36" />
  <rect
     x="132"
     y="0"
     width="2"
     height="75"
     fill="#000"
     id="rect38" />
  <rect
     x="138"
     y="0"
     width="2"
     height="75"
     fill="#000"
     id="rect40" />
  <rect
     x="146"
     y="0"
     width="6"
     height="75"
     fill="#000"
     id="rect42" />
  <rect
     x="154"
     y="0"
     width="2"
     height="75"
     fill="#000"
     id="rect44" />
  <rect
     x="160"
     y="0"
     width="6"
     height="75"
     fill="#000"
     id="rect46" />
  <rect
     x="170"
     y="0"
     width="2"
     height="75"
     fill="#000"
     id="rect48" />
  <rect
     x="174"
     y="0"
     width="4"
     height="75"
     fill="#000"
     id="rect50" />
  <rect
     x="182"
     y="0"
     width="4"
     height="75"
     fill="#000"
     id="rect52" />
  <rect
     x="188"
     y="0"
     width="4"
     height="90"
     fill="#000"
     id="rect54" />
  <rect
     x="194"
     y="0"
     width="4"
     height="90"
     fill="#000"
     id="rect56" />
  <rect
     x="202"
     y="0"
     width="2"
     height="90"
     fill="#000"
     id="rect58" />
  <rect
     x="206"
     y="0"
     width="2"
     height="90"
     fill="#000"
     id="rect60" />
  <g
     aria-label="1"
     id="text62"
     style="font-size:21.3333px;font-family:Arial">
    <path
       d="M 10.947917,95 H 9.0729168 V 83.052083 q -0.6770833,0.645833 -1.78125,1.291667 -1.09375,0.645833 -1.9687501,0.96875 V 83.5 Q 6.8958334,82.760416 8.0729168,81.708333 9.2500002,80.65625 9.7395835,79.666666 h 1.2083335 z"
       id="path76" />
  </g>
  <g
     aria-label="23456"
     id="text64"
     style="font-size:21.3333px;font-family:Arial">
    <path
       d="M 54.739584,93.197917 V 95 H 44.645833 q -0.02083,-0.677083 0.21875,-1.302083 0.385417,-1.03125 1.229167,-2.03125 0.854167,-1 2.458333,-2.312501 2.489584,-2.041666 3.364584,-3.229166 0.875,-1.197917 0.875,-2.260417 0,-1.114583 -0.802083,-1.875 -0.791667,-0.770833 -2.072917,-0.770833 -1.354167,0 -2.166667,0.8125 -0.8125,0.8125 -0.822917,2.25 L 45,84.083333 q 0.197917,-2.15625 1.489583,-3.28125 1.291667,-1.135417 3.468751,-1.135417 2.197916,0 3.479166,1.21875 1.28125,1.21875 1.28125,3.020834 0,0.916666 -0.375,1.802083 -0.375,0.885417 -1.25,1.864583 -0.864583,0.979167 -2.885416,2.687501 -1.687501,1.416666 -2.166667,1.927083 -0.479167,0.5 -0.791667,1.010417 z"
       id="path79" />
    <path
       d="m 56.760417,90.96875 1.875,-0.25 q 0.322917,1.59375 1.09375,2.302083 0.78125,0.697917 1.895834,0.697917 1.322917,0 2.229167,-0.916667 0.916666,-0.916666 0.916666,-2.270833 0,-1.291667 -0.84375,-2.125 -0.84375,-0.84375 -2.145833,-0.84375 -0.53125,0 -1.322917,0.208333 L 60.666667,86.125 q 0.1875,0.02083 0.302084,0.02083 1.197916,0 2.15625,-0.625 0.958333,-0.625 0.958333,-1.927083 0,-1.03125 -0.697916,-1.708334 -0.697917,-0.677083 -1.802084,-0.677083 -1.09375,0 -1.822917,0.6875 -0.729166,0.6875 -0.9375,2.0625 l -1.875,-0.333333 q 0.34375,-1.885417 1.5625,-2.916667 1.21875,-1.041667 3.03125,-1.041667 1.250001,0 2.302084,0.541667 1.052083,0.53125 1.604167,1.458333 0.5625,0.927084 0.5625,1.96875 0,0.989584 -0.53125,1.802084 -0.53125,0.8125 -1.572917,1.291666 1.354167,0.3125 2.104167,1.302084 0.75,0.979166 0.75,2.458333 0,2 -1.458334,3.395834 -1.458333,1.385416 -3.6875,1.385416 -2.010417,0 -3.34375,-1.197916 Q 56.947917,92.875 56.760417,90.96875 Z"
       id="path81" />
    <path
       d="m 74.625001,95 v -3.65625 h -6.625 V 89.625 l 6.96875,-9.895834 h 1.531251 V 89.625 h 2.0625 v 1.71875 h -2.0625 V 95 Z m 0,-5.375 V 82.739583 L 69.843751,89.625 Z"
       id="path83" />
    <path
       d="m 80.479167,91 1.96875,-0.166667 q 0.21875,1.4375 1.010416,2.166667 0.802084,0.71875 1.927084,0.71875 1.354167,0 2.291667,-1.020833 0.9375,-1.020834 0.9375,-2.708334 0,-1.604167 -0.90625,-2.53125 -0.895834,-0.927083 -2.354167,-0.927083 -0.90625,0 -1.635417,0.416666 -0.729167,0.40625 -1.145833,1.0625 L 80.8125,87.78125 82.291667,79.9375 h 7.59375 v 1.791666 h -6.09375 l -0.822917,4.104167 q 1.375,-0.958333 2.885417,-0.958333 2,0 3.375,1.385416 1.375,1.385417 1.375,3.562501 0,2.072916 -1.208333,3.583333 -1.46875,1.854167 -4.010417,1.854167 -2.083334,0 -3.40625,-1.166667 -1.3125,-1.166667 -1.5,-3.09375 z"
       id="path85" />
    <path
       d="m 102.07292,83.46875 -1.86458,0.145833 q -0.250004,-1.104167 -0.708337,-1.604167 -0.760417,-0.802083 -1.875,-0.802083 -0.895834,0 -1.572917,0.5 -0.885417,0.645833 -1.395833,1.885417 -0.510417,1.239583 -0.53125,3.53125 0.677083,-1.03125 1.65625,-1.53125 0.979166,-0.5 2.052083,-0.5 1.875,0 3.187504,1.385416 1.32291,1.375 1.32291,3.562501 0,1.4375 -0.625,2.677083 -0.61458,1.229167 -1.69791,1.885417 -1.083337,0.65625 -2.458337,0.65625 -2.34375,0 -3.822917,-1.71875 -1.479167,-1.729167 -1.479167,-5.687501 0,-4.427083 1.635417,-6.4375 1.427083,-1.75 3.84375,-1.75 1.802083,0 2.947914,1.010417 1.15625,1.010417 1.38542,2.791667 z m -7.656251,6.583333 q 0,0.96875 0.40625,1.854167 0.416667,0.885417 1.15625,1.354167 0.739584,0.458333 1.552084,0.458333 1.1875,0 2.041666,-0.958333 0.854171,-0.958334 0.854171,-2.604167 0,-1.583334 -0.843754,-2.489584 -0.84375,-0.916666 -2.125,-0.916666 -1.270833,0 -2.15625,0.916666 -0.885417,0.90625 -0.885417,2.385417 z"
       id="path87" />
  </g>
  <g
     aria-label="78901"
     id="text66"
     style="font-size:21.3333px;font-family:Arial">
    <path
       d="m 124.01042,81.729166 v -1.802083 h 9.88541 v 1.458333 Q 132.4375,82.9375 131,85.510416 129.57292,88.083333 128.79167,90.802083 128.22917,92.71875 128.07292,95 h -1.92709 q 0.0312,-1.802083 0.70834,-4.354167 0.67708,-2.552083 1.9375,-4.916667 1.27083,-2.375 2.69791,-4 z"
       id="path90" />
    <path
       d="m 138.63542,86.71875 q -1.16667,-0.427084 -1.72917,-1.21875 -0.5625,-0.791667 -0.5625,-1.895834 0,-1.666666 1.19792,-2.802083 1.19791,-1.135417 3.1875,-1.135417 2,0 3.21875,1.166667 1.21875,1.15625 1.21875,2.822917 0,1.0625 -0.5625,1.854166 -0.55209,0.78125 -1.6875,1.208334 1.40625,0.458333 2.13541,1.479166 0.73959,1.020834 0.73959,2.437501 0,1.958333 -1.38542,3.291666 -1.38542,1.333334 -3.64583,1.333334 -2.26042,0 -3.64584,-1.333334 -1.38541,-1.34375 -1.38541,-3.34375 0,-1.489583 0.75,-2.489583 0.76041,-1.010417 2.15625,-1.375 z m -0.375,-3.177084 q 0,1.083334 0.69791,1.770834 0.69792,0.6875 1.8125,0.6875 1.08334,0 1.77084,-0.677084 0.69791,-0.6875 0.69791,-1.677083 0,-1.03125 -0.71875,-1.729167 -0.70833,-0.708333 -1.77083,-0.708333 -1.07292,0 -1.78125,0.6875 -0.70833,0.6875 -0.70833,1.645833 z m -0.60417,7.052084 q 0,0.802083 0.375,1.552083 0.38542,0.75 1.13542,1.166667 0.75,0.40625 1.61458,0.40625 1.34375,0 2.21875,-0.864583 0.875,-0.864584 0.875,-2.197917 0,-1.354167 -0.90625,-2.239584 -0.89583,-0.885416 -2.25,-0.885416 -1.32292,0 -2.19792,0.875 -0.86458,0.875 -0.86458,2.1875 z"
       id="path92" />
    <path
       d="m 147.89583,91.46875 1.80209,-0.166667 q 0.22916,1.270834 0.875,1.84375 0.64583,0.572917 1.65625,0.572917 0.86458,0 1.51041,-0.395833 0.65625,-0.395834 1.07292,-1.052084 0.41667,-0.666666 0.69792,-1.791666 0.28125,-1.125001 0.28125,-2.291667 0,-0.125 -0.0104,-0.375 -0.5625,0.895833 -1.54167,1.458333 -0.96875,0.552084 -2.10416,0.552084 -1.89584,0 -3.20834,-1.375001 -1.3125,-1.375 -1.3125,-3.625 0,-2.322916 1.36459,-3.739583 1.375,-1.416667 3.4375,-1.416667 1.48958,0 2.71875,0.802084 1.23958,0.802083 1.875,2.291666 0.64583,1.479167 0.64583,4.291667 0,2.927084 -0.63542,4.666667 -0.63541,1.729167 -1.89583,2.635417 -1.25,0.90625 -2.9375,0.90625 -1.79167,0 -2.92708,-0.989584 -1.13542,-1 -1.36459,-2.802083 z m 7.67709,-6.739584 q 0,-1.614583 -0.86459,-2.5625 -0.85416,-0.947916 -2.0625,-0.947916 -1.25,0 -2.17708,1.020833 -0.92708,1.020833 -0.92708,2.645833 0,1.458334 0.875,2.375 0.88541,0.90625 2.17708,0.90625 1.30208,0 2.13542,-0.90625 0.84375,-0.916666 0.84375,-2.53125 z"
       id="path94" />
    <path
       d="m 159.47917,87.46875 q 0,-2.708334 0.55208,-4.354167 0.5625,-1.65625 1.65625,-2.552083 1.10417,-0.895834 2.77083,-0.895834 1.22917,0 2.15625,0.5 0.92709,0.489584 1.53125,1.427084 0.60417,0.927083 0.94792,2.270833 0.34375,1.333333 0.34375,3.604167 0,2.6875 -0.55208,4.34375 -0.55209,1.645833 -1.65625,2.552083 -1.09375,0.895834 -2.77084,0.895834 -2.20833,0 -3.46875,-1.583334 -1.51041,-1.90625 -1.51041,-6.208333 z m 1.92708,0 q 0,3.760417 0.875,5.010417 0.88542,1.239583 2.17708,1.239583 1.29167,0 2.16667,-1.25 0.88542,-1.25 0.88542,-5 0,-3.770834 -0.88542,-5.010417 -0.875,-1.239583 -2.1875,-1.239583 -1.29167,0 -2.0625,1.09375 -0.96875,1.395833 -0.96875,5.15625 z"
       id="path96" />
    <path
       d="m 178.40625,95 h -1.875 V 83.052083 q -0.67708,0.645833 -1.78125,1.291667 -1.09375,0.645833 -1.96875,0.96875 V 83.5 q 1.57292,-0.739584 2.75,-1.791667 1.17709,-1.052083 1.66667,-2.041667 h 1.20833 z"
       id="path98" />
  </g>
  <g
     aria-label="2"
     id="text68"
     style="font-size:21.3333px;font-family:Arial">
    <path
       d="M 222.73958,93.197917 V 95 h -10.09375 q -0.0208,-0.677083 0.21875,-1.302083 0.38542,-1.03125 1.22917,-2.03125 0.85417,-1 2.45833,-2.312501 2.48959,-2.041666 3.36459,-3.229166 0.875,-1.197917 0.875,-2.260417 0,-1.114583 -0.80209,-1.875 -0.79166,-0.770833 -2.07291,-0.770833 -1.35417,0 -2.16667,0.8125 -0.8125,0.8125 -0.82292,2.25 L 213,84.083333 q 0.19792,-2.15625 1.48958,-3.28125 1.29167,-1.135417 3.46875,-1.135417 2.19792,0 3.47917,1.21875 1.28125,1.21875 1.28125,3.020834 0,0.916666 -0.375,1.802083 -0.375,0.885417 -1.25,1.864583 -0.86458,0.979167 -2.88542,2.687501 -1.6875,1.416666 -2.16666,1.927083 -0.47917,0.5 -0.79167,1.010417 z"
       id="path101" />
  </g>
</svg>
