<?xml version="1.0" ?>
<svg version="1.1" xmlns="http://www.w3.org/2000/svg" width="226px" height="100px" viewBox="0 0 226 100">
  <rect x="18" y="0" width="2" height="90" fill="#000"/>
  <rect x="22" y="0" width="2" height="90" fill="#000"/>
  <rect x="28" y="0" width="4" height="90" fill="#000"/>
  <rect x="36" y="0" width="2" height="90" fill="#000"/>
  <rect x="42" y="0" width="2" height="75" fill="#000"/>
  <rect x="48" y="0" width="4" height="75" fill="#000"/>
  <rect x="54" y="0" width="8" height="75" fill="#000"/>
  <rect x="64" y="0" width="2" height="75" fill="#000"/>
  <rect x="68" y="0" width="2" height="75" fill="#000"/>
  <rect x="76" y="0" width="4" height="75" fill="#000"/>
  <rect x="82" y="0" width="4" height="75" fill="#000"/>
  <rect x="92" y="0" width="2" height="75" fill="#000"/>
  <rect x="96" y="0" width="2" height="75" fill="#000"/>
  <rect x="100" y="0" width="8" height="75" fill="#000"/>
  <rect x="110" y="0" width="2" height="90" fill="#000"/>
  <rect x="114" y="0" width="2" height="90" fill="#000"/>
  <rect x="118" y="0" width="2" height="75" fill="#000"/>
  <rect x="126" y="0" width="2" height="75" fill="#000"/>
  <rect x="132" y="0" width="2" height="75" fill="#000"/>
  <rect x="138" y="0" width="2" height="75" fill="#000"/>
  <rect x="146" y="0" width="6" height="75" fill="#000"/>
  <rect x="154" y="0" width="2" height="75" fill="#000"/>
  <rect x="160" y="0" width="6" height="75" fill="#000"/>
  <rect x="170" y="0" width="2" height="75" fill="#000"/>
  <rect x="174" y="0" width="4" height="75" fill="#000"/>
  <rect x="182" y="0" width="4" height="75" fill="#000"/>
  <rect x="188" y="0" width="4" height="90" fill="#000"/>
  <rect x="194" y="0" width="4" height="90" fill="#000"/>
  <rect x="202" y="0" width="2" height="90" fill="#000"/>
  <rect x="206" y="0" width="2" height="90" fill="#000"/>
  <text x="3" y="95" style="font-size: 16pt; font-family: Arial;">1</text>
  <text x="44" y="95" style="font-size: 16pt; font-family: Arial;">23456</text>
  <text x="123" y="95" style="font-size: 16pt; font-family: Arial;">78901</text>
  <text x="212" y="95" style="font-size: 16pt; font-family: Arial;">2</text>
</svg>
