<?xml version="1.0" encoding="UTF-8" standalone="no"?>
<svg
   xmlns:dc="http://purl.org/dc/elements/1.1/"
   xmlns:cc="http://creativecommons.org/ns#"
   xmlns:rdf="http://www.w3.org/1999/02/22-rdf-syntax-ns#"
   xmlns:svg="http://www.w3.org/2000/svg"
   xmlns="http://www.w3.org/2000/svg"
   id="svg70"
   width="226px"
   viewBox="0 0 226 100"
   version="1.1"
   height="100px">
  <metadata
     id="metadata76">
    <rdf:RDF>
      <cc:Work
         rdf:about="">
        <dc:format>image/svg+xml</dc:format>
        <dc:type
           rdf:resource="http://purl.org/dc/dcmitype/StillImage" />
      </cc:Work>
    </rdf:RDF>
  </metadata>
  <defs
     id="defs74" />
  <rect
     id="rect2"
     y="0"
     x="18"
     width="2"
     height="90"
     fill="#000" />
  <rect
     id="rect4"
     y="0"
     x="22"
     width="2"
     height="90"
     fill="#000" />
  <rect
     id="rect6"
     y="0"
     x="30"
     width="4"
     height="90"
     fill="#000" />
  <rect
     id="rect8"
     y="0"
     x="36"
     width="2"
     height="90"
     fill="#000" />
  <rect
     id="rect10"
     y="0"
     x="42"
     width="4"
     height="75"
     fill="#000" />
  <rect
     id="rect12"
     y="0"
     x="50"
     width="2"
     height="75"
     fill="#000" />
  <rect
     id="rect14"
     y="0"
     x="56"
     width="2"
     height="75"
     fill="#000" />
  <rect
     id="rect16"
     y="0"
     x="62"
     width="4"
     height="75"
     fill="#000" />
  <rect
     id="rect18"
     y="0"
     x="68"
     width="8"
     height="75"
     fill="#000" />
  <rect
     id="rect20"
     y="0"
     x="78"
     width="2"
     height="75"
     fill="#000" />
  <rect
     id="rect22"
     y="0"
     x="82"
     width="2"
     height="75"
     fill="#000" />
  <rect
     id="rect24"
     y="0"
     x="90"
     width="4"
     height="75"
     fill="#000" />
  <rect
     id="rect26"
     y="0"
     x="96"
     width="4"
     height="75"
     fill="#000" />
  <rect
     id="rect28"
     y="0"
     x="106"
     width="2"
     height="75"
     fill="#000" />
  <rect
     id="rect30"
     y="0"
     x="110"
     width="2"
     height="90"
     fill="#000" />
  <rect
     id="rect32"
     y="0"
     x="114"
     width="2"
     height="90"
     fill="#000" />
  <rect
     id="rect34"
     y="0"
     x="118"
     width="2"
     height="75"
     fill="#000" />
  <rect
     id="rect36"
     y="0"
     x="122"
     width="2"
     height="75"
     fill="#000" />
  <rect
     id="rect38"
     y="0"
     x="132"
     width="2"
     height="75"
     fill="#000" />
  <rect
     id="rect40"
     y="0"
     x="140"
     width="2"
     height="75"
     fill="#000" />
  <rect
     id="rect42"
     y="0"
     x="146"
     width="2"
     height="75"
     fill="#000" />
  <rect
     id="rect44"
     y="0"
     x="152"
     width="2"
     height="75"
     fill="#000" />
  <rect
     id="rect46"
     y="0"
     x="160"
     width="6"
     height="75"
     fill="#000" />
  <rect
     id="rect48"
     y="0"
     x="168"
     width="2"
     height="75"
     fill="#000" />
  <rect
     id="rect50"
     y="0"
     x="174"
     width="6"
     height="75"
     fill="#000" />
  <rect
     id="rect52"
     y="0"
     x="184"
     width="2"
     height="75"
     fill="#000" />
  <rect
     id="rect54"
     y="0"
     x="188"
     width="2"
     height="90"
     fill="#000" />
  <rect
     id="rect56"
     y="0"
     x="194"
     width="6"
     height="90"
     fill="#000" />
  <rect
     id="rect58"
     y="0"
     x="202"
     width="2"
     height="90"
     fill="#000" />
  <rect
     id="rect60"
     y="0"
     x="206"
     width="2"
     height="90"
     fill="#000" />
  <g
     id="text62"
     style="font-size:21.33333397px;font-family:Arial"
     aria-label="0">
    <path
       id="path78"
       style="font-size:21.33333397px;font-family:Arial"
       d="m 3.8854167,87.46875 q 0,-2.708334 0.5520833,-4.354167 0.5625001,-1.65625 1.6562501,-2.552083 1.1041667,-0.895834 2.7708334,-0.895834 1.2291665,0 2.1562505,0.5 0.927083,0.489584 1.53125,1.427084 0.604166,0.927083 0.947916,2.270833 0.34375,1.333333 0.34375,3.604167 0,2.6875 -0.552083,4.34375 -0.552083,1.645833 -1.65625,2.552083 -1.09375,0.895834 -2.7708335,0.895834 -2.2083334,0 -3.4687501,-1.583334 -1.5104167,-1.90625 -1.5104167,-6.208333 z m 1.9270834,0 q 0,3.760417 0.875,5.010417 0.8854167,1.239583 2.1770834,1.239583 1.2916665,0 2.1666665,-1.25 0.885417,-1.25 0.885417,-5 0,-3.770834 -0.885417,-5.010417 -0.875,-1.239583 -2.1874998,-1.239583 -1.2916667,0 -2.0625001,1.09375 -0.96875,1.395833 -0.96875,5.15625 z" />
  </g>
  <g
     id="text64"
     style="font-size:21.33333397px;font-family:Arial"
     aria-label="12345">
    <path
       id="path81"
       style="font-size:21.33333397px;font-family:Arial"
       d="m 51.947917,95 h -1.875 V 83.052083 q -0.677084,0.645833 -1.78125,1.291667 -1.09375,0.645833 -1.96875,0.96875 V 83.5 q 1.572916,-0.739584 2.75,-1.791667 Q 50.25,80.65625 50.739584,79.666666 h 1.208333 z" />
    <path
       id="path83"
       style="font-size:21.33333397px;font-family:Arial"
       d="M 66.614584,93.197917 V 95 H 56.520833 q -0.02083,-0.677083 0.21875,-1.302083 0.385417,-1.03125 1.229167,-2.03125 0.854167,-1 2.458333,-2.312501 2.489584,-2.041666 3.364584,-3.229166 0.875,-1.197917 0.875,-2.260417 0,-1.114583 -0.802083,-1.875 -0.791667,-0.770833 -2.072917,-0.770833 -1.354167,0 -2.166667,0.8125 -0.8125,0.8125 -0.822917,2.25 L 56.875,84.083333 q 0.197917,-2.15625 1.489583,-3.28125 1.291667,-1.135417 3.468751,-1.135417 2.197916,0 3.479166,1.21875 1.28125,1.21875 1.28125,3.020834 0,0.916666 -0.375,1.802083 -0.375,0.885417 -1.25,1.864583 -0.864583,0.979167 -2.885416,2.687501 -1.687501,1.416666 -2.166667,1.927083 -0.479167,0.5 -0.791667,1.010417 z" />
    <path
       id="path85"
       style="font-size:21.33333397px;font-family:Arial"
       d="m 68.645833,90.96875 1.875,-0.25 q 0.322917,1.59375 1.09375,2.302083 0.78125,0.697917 1.895834,0.697917 1.322917,0 2.229167,-0.916667 0.916666,-0.916666 0.916666,-2.270833 0,-1.291667 -0.84375,-2.125 -0.84375,-0.84375 -2.145833,-0.84375 -0.53125,0 -1.322917,0.208333 L 72.552083,86.125 q 0.1875,0.02083 0.302084,0.02083 1.197917,0 2.15625,-0.625 0.958333,-0.625 0.958333,-1.927083 0,-1.03125 -0.697916,-1.708334 -0.697917,-0.677083 -1.802084,-0.677083 -1.09375,0 -1.822917,0.6875 -0.729166,0.6875 -0.9375,2.0625 l -1.875,-0.333333 q 0.34375,-1.885417 1.5625,-2.916667 1.21875,-1.041667 3.031251,-1.041667 1.25,0 2.302083,0.541667 1.052083,0.53125 1.604167,1.458333 0.5625,0.927084 0.5625,1.96875 0,0.989584 -0.53125,1.802084 -0.53125,0.8125 -1.572917,1.291666 1.354167,0.3125 2.104167,1.302084 0.75,0.979166 0.75,2.458333 0,2 -1.458334,3.395834 -1.458333,1.385416 -3.6875,1.385416 -2.010417,0 -3.34375,-1.197916 Q 68.833333,92.875 68.645833,90.96875 Z" />
    <path
       id="path87"
       style="font-size:21.33333397px;font-family:Arial"
       d="M 86.520834,95 V 91.34375 H 79.895833 V 89.625 l 6.968751,-9.895834 h 1.53125 V 89.625 h 2.0625 v 1.71875 h -2.0625 V 95 Z m 0,-5.375 V 82.739583 L 81.739583,89.625 Z" />
    <path
       id="path89"
       style="font-size:21.33333397px;font-family:Arial"
       d="m 92.385417,91 1.96875,-0.166667 q 0.21875,1.4375 1.010416,2.166667 0.802084,0.71875 1.927084,0.71875 1.354167,0 2.291667,-1.020833 0.937496,-1.020834 0.937496,-2.708334 0,-1.604167 -0.906246,-2.53125 -0.895834,-0.927083 -2.354167,-0.927083 -0.90625,0 -1.635417,0.416666 -0.729167,0.40625 -1.145833,1.0625 L 92.71875,87.78125 94.197917,79.9375 h 7.593753 v 1.791666 H 95.697917 L 94.875,85.833333 Q 96.25,84.875 97.760417,84.875 q 2,0 3.375003,1.385416 1.375,1.385417 1.375,3.562501 0,2.072916 -1.20834,3.583333 -1.468746,1.854167 -4.010413,1.854167 -2.083334,0 -3.40625,-1.166667 -1.3125,-1.166667 -1.5,-3.09375 z" />
  </g>
  <g
     id="text66"
     style="font-size:21.33333397px;font-family:Arial"
     aria-label="67890">
    <path
       id="path92"
       style="font-size:21.33333397px;font-family:Arial"
       d="M 133.61458,83.46875 131.75,83.614583 q -0.25,-1.104167 -0.70833,-1.604167 -0.76042,-0.802083 -1.875,-0.802083 -0.89584,0 -1.57292,0.5 -0.88542,0.645833 -1.39583,1.885417 -0.51042,1.239583 -0.53125,3.53125 0.67708,-1.03125 1.65625,-1.53125 0.97916,-0.5 2.05208,-0.5 1.875,0 3.1875,1.385416 1.32292,1.375 1.32292,3.562501 0,1.4375 -0.625,2.677083 -0.61459,1.229167 -1.69792,1.885417 -1.08333,0.65625 -2.45833,0.65625 -2.34375,0 -3.82292,-1.71875 -1.47917,-1.729167 -1.47917,-5.687501 0,-4.427083 1.63542,-6.4375 1.42708,-1.75 3.84375,-1.75 1.80208,0 2.94792,1.010417 1.15625,1.010417 1.38541,2.791667 z m -7.65625,6.583333 q 0,0.96875 0.40625,1.854167 0.41667,0.885417 1.15625,1.354167 0.73959,0.458333 1.55209,0.458333 1.1875,0 2.04166,-0.958333 0.85417,-0.958334 0.85417,-2.604167 0,-1.583334 -0.84375,-2.489584 Q 130.28125,86.75 129,86.75 q -1.27083,0 -2.15625,0.916666 -0.88542,0.90625 -0.88542,2.385417 z" />
    <path
       id="path94"
       style="font-size:21.33333397px;font-family:Arial"
       d="m 135.88542,81.729166 v -1.802083 h 9.88541 v 1.458333 q -1.45833,1.552084 -2.89583,4.125 -1.42708,2.572917 -2.20833,5.291667 Q 140.10417,92.71875 139.94792,95 h -1.92709 q 0.0312,-1.802083 0.70834,-4.354167 0.67708,-2.552083 1.9375,-4.916667 1.27083,-2.375 2.69791,-4 z" />
    <path
       id="path96"
       style="font-size:21.33333397px;font-family:Arial"
       d="m 150.52083,86.71875 q -1.16666,-0.427084 -1.72916,-1.21875 -0.5625,-0.791667 -0.5625,-1.895834 0,-1.666666 1.19791,-2.802083 1.19792,-1.135417 3.1875,-1.135417 2,0 3.21875,1.166667 1.21875,1.15625 1.21875,2.822917 0,1.0625 -0.5625,1.854166 -0.55208,0.78125 -1.6875,1.208334 1.40625,0.458333 2.13542,1.479166 0.73958,1.020834 0.73958,2.437501 0,1.958333 -1.38541,3.291666 -1.38542,1.333334 -3.64584,1.333334 -2.26041,0 -3.64583,-1.333334 -1.38542,-1.34375 -1.38542,-3.34375 0,-1.489583 0.75,-2.489583 0.76042,-1.010417 2.15625,-1.375 z m -0.375,-3.177084 q 0,1.083334 0.69792,1.770834 0.69792,0.6875 1.8125,0.6875 1.08333,0 1.77083,-0.677084 0.69792,-0.6875 0.69792,-1.677083 0,-1.03125 -0.71875,-1.729167 -0.70833,-0.708333 -1.77083,-0.708333 -1.07292,0 -1.78125,0.6875 -0.70834,0.6875 -0.70834,1.645833 z m -0.60416,7.052084 q 0,0.802083 0.375,1.552083 0.38541,0.75 1.13541,1.166667 0.75,0.40625 1.61459,0.40625 1.34375,0 2.21875,-0.864583 0.875,-0.864584 0.875,-2.197917 0,-1.354167 -0.90625,-2.239584 -0.89584,-0.885416 -2.25,-0.885416 -1.32292,0 -2.19792,0.875 -0.86458,0.875 -0.86458,2.1875 z" />
    <path
       id="path98"
       style="font-size:21.33333397px;font-family:Arial"
       d="m 159.79167,91.46875 1.80208,-0.166667 q 0.22917,1.270834 0.875,1.84375 0.64583,0.572917 1.65625,0.572917 0.86458,0 1.51042,-0.395833 0.65625,-0.395834 1.07291,-1.052084 0.41667,-0.666666 0.69792,-1.791666 0.28125,-1.125001 0.28125,-2.291667 0,-0.125 -0.0104,-0.375 -0.5625,0.895833 -1.54166,1.458333 -0.96875,0.552084 -2.10417,0.552084 -1.89583,0 -3.20833,-1.375001 -1.3125,-1.375 -1.3125,-3.625 0,-2.322916 1.36458,-3.739583 1.375,-1.416667 3.4375,-1.416667 1.48958,0 2.71875,0.802084 1.23958,0.802083 1.875,2.291666 0.64583,1.479167 0.64583,4.291667 0,2.927084 -0.63541,4.666667 -0.63542,1.729167 -1.89584,2.635417 -1.25,0.90625 -2.9375,0.90625 -1.79166,0 -2.92708,-0.989584 -1.13542,-1 -1.36458,-2.802083 z m 7.67708,-6.739584 q 0,-1.614583 -0.86458,-2.5625 -0.85417,-0.947916 -2.0625,-0.947916 -1.25,0 -2.17709,1.020833 -0.92708,1.020833 -0.92708,2.645833 0,1.458334 0.875,2.375 0.88542,0.90625 2.17708,0.90625 1.30209,0 2.13542,-0.90625 0.84375,-0.916666 0.84375,-2.53125 z" />
    <path
       id="path100"
       style="font-size:21.33333397px;font-family:Arial"
       d="m 171.38542,87.46875 q 0,-2.708334 0.55208,-4.354167 0.5625,-1.65625 1.65625,-2.552083 1.10417,-0.895834 2.77083,-0.895834 1.22917,0 2.15625,0.5 0.92709,0.489584 1.53125,1.427084 0.60417,0.927083 0.94792,2.270833 0.34375,1.333333 0.34375,3.604167 0,2.6875 -0.55208,4.34375 -0.55209,1.645833 -1.65625,2.552083 -1.09375,0.895834 -2.77084,0.895834 -2.20833,0 -3.46875,-1.583334 -1.51041,-1.90625 -1.51041,-6.208333 z m 1.92708,0 q 0,3.760417 0.875,5.010417 0.88542,1.239583 2.17708,1.239583 1.29167,0 2.16667,-1.25 0.88542,-1.25 0.88542,-5 0,-3.770834 -0.88542,-5.010417 -0.875,-1.239583 -2.1875,-1.239583 -1.29167,0 -2.0625,1.09375 -0.96875,1.395833 -0.96875,5.15625 z" />
  </g>
  <g
     id="text68"
     style="font-size:21.33333397px;font-family:Arial"
     aria-label="5">
    <path
       id="path103"
       style="font-size:21.33333397px;font-family:Arial"
       d="m 212.88542,91 1.96875,-0.166667 q 0.21875,1.4375 1.01041,2.166667 0.80209,0.71875 1.92709,0.71875 1.35416,0 2.29166,-1.020833 0.9375,-1.020834 0.9375,-2.708334 0,-1.604167 -0.90625,-2.53125 -0.89583,-0.927083 -2.35416,-0.927083 -0.90625,0 -1.63542,0.416666 -0.72917,0.40625 -1.14583,1.0625 l -1.76042,-0.229166 1.47917,-7.84375 h 7.59375 v 1.791666 h -6.09375 L 215.375,85.833333 Q 216.75,84.875 218.26042,84.875 q 2,0 3.375,1.385416 1.375,1.385417 1.375,3.562501 0,2.072916 -1.20834,3.583333 -1.46875,1.854167 -4.01041,1.854167 -2.08334,0 -3.40625,-1.166667 -1.3125,-1.166667 -1.5,-3.09375 z" />
  </g>
</svg>
