<?xml version="1.0" ?>
<svg height="100px" version="1.1" viewBox="0 0 226 100" width="226px" xmlns="http://www.w3.org/2000/svg">
  <rect fill="#000" height="90" width="2" x="18" y="0"/>
  <rect fill="#000" height="90" width="2" x="22" y="0"/>
  <rect fill="#000" height="90" width="4" x="30" y="0"/>
  <rect fill="#000" height="90" width="2" x="36" y="0"/>
  <rect fill="#000" height="75" width="4" x="42" y="0"/>
  <rect fill="#000" height="75" width="2" x="50" y="0"/>
  <rect fill="#000" height="75" width="2" x="56" y="0"/>
  <rect fill="#000" height="75" width="4" x="62" y="0"/>
  <rect fill="#000" height="75" width="8" x="68" y="0"/>
  <rect fill="#000" height="75" width="2" x="78" y="0"/>
  <rect fill="#000" height="75" width="2" x="82" y="0"/>
  <rect fill="#000" height="75" width="4" x="90" y="0"/>
  <rect fill="#000" height="75" width="4" x="96" y="0"/>
  <rect fill="#000" height="75" width="2" x="106" y="0"/>
  <rect fill="#000" height="90" width="2" x="110" y="0"/>
  <rect fill="#000" height="90" width="2" x="114" y="0"/>
  <rect fill="#000" height="75" width="2" x="118" y="0"/>
  <rect fill="#000" height="75" width="2" x="122" y="0"/>
  <rect fill="#000" height="75" width="2" x="132" y="0"/>
  <rect fill="#000" height="75" width="2" x="140" y="0"/>
  <rect fill="#000" height="75" width="2" x="146" y="0"/>
  <rect fill="#000" height="75" width="2" x="152" y="0"/>
  <rect fill="#000" height="75" width="6" x="160" y="0"/>
  <rect fill="#000" height="75" width="2" x="168" y="0"/>
  <rect fill="#000" height="75" width="6" x="174" y="0"/>
  <rect fill="#000" height="75" width="2" x="184" y="0"/>
  <rect fill="#000" height="90" width="2" x="188" y="0"/>
  <rect fill="#000" height="90" width="6" x="194" y="0"/>
  <rect fill="#000" height="90" width="2" x="202" y="0"/>
  <rect fill="#000" height="90" width="2" x="206" y="0"/>
  <text style="font-size: 16pt; font-family: Arial;" x="3" y="95">0</text>
  <text style="font-size: 16pt; font-family: Arial;" x="44" y="95">12345</text>
  <text style="font-size: 16pt; font-family: Arial;" x="123" y="95">67890</text>
  <text style="font-size: 16pt; font-family: Arial;" x="212" y="95">5</text>
</svg>
